<svg xmlns="http://www.w3.org/2000/svg" xmlns:xlink="http://www.w3.org/1999/xlink" width="100" height="30" viewBox="0 0 1529.271 515.875">
  <defs>
    <linearGradient id="linear-gradient" x1="0.5" x2="0.5" y2="1" gradientUnits="objectBoundingBox">
      <stop offset="0" stop-color="#e40286"/>
      <stop offset="1" stop-color="#3341b6"/>
    </linearGradient>
    <linearGradient id="linear-gradient-2" x1="0.5" x2="0.5" y2="1" gradientUnits="objectBoundingBox">
      <stop offset="0"/>
      <stop offset="1" stop-color="#3341b6"/>
    </linearGradient>
  </defs>
  <g id="Group_104" data-name="Group 104" transform="translate(20948.271 -195.353)">
    <g id="Group_103" data-name="Group 103" transform="translate(-20982.324 478.462) rotate(-45)">
      <g id="Group_51" data-name="Group 51" transform="translate(0 319.424)">
        <path id="Path_13" data-name="Path 13" d="M0,9.758H48.158V0C22.977,2.518,5.666,5.981,0,9.758Z" transform="translate(0 0)" fill="#cacaca"/>
        <path id="Path_14" data-name="Path 14" d="M0,0V9.758H45.955C40.289,6.3,24.236,2.833,0,0Z" transform="translate(400.374 0)" fill="#cacaca"/>
      </g>
      <g id="Group_81" data-name="Group 81" transform="translate(48.158 0)">
        <path id="Path_10" data-name="Path 10" d="M0,329.174H293.671V0H0Z" transform="translate(58.547 0)" fill="url(#linear-gradient)"/>
        <path id="Path_12" data-name="Path 12" d="M0,329.174H58.545V0L0,29.339Z" transform="translate(0)" fill="url(#linear-gradient-2)"/>
      </g>
    </g>
    <text id="IPOST" transform="translate(-20338 537.808)" fill="#0d0c22" font-size="318" font-family="Avenir-Heavy, Avenir" font-weight="800"><tspan x="0" y="0">I</tspan><tspan y="0" font-family="Avenir-Black, Avenir">POST</tspan></text>
  </g>
</svg>
